M48
;DRILL file {KiCad (2017-06-21 revision 375ec9f)-master} date Sun Dec 30 23:55:24 2018
;FORMAT={-:-/ absolute / inch / decimal}
FMAT,2
INCH,TZ
T1C0.016
T2C0.024
T3C0.028
T4C0.039
%
G90
G05
M72
T1
X4.48Y-3.893
X4.6335Y-4.4034
X4.72Y-4.425
X4.775Y-4.795
T2
X4.895Y-4.11
X4.895Y-4.16
X4.895Y-4.21
X5.2Y-4.3
X5.2Y-4.35
X5.2Y-4.4
X5.Y-4.3
X5.Y-4.35
X5.Y-4.4
X5.295Y-4.11
X5.295Y-4.16
X5.295Y-4.21
X5.1Y-4.11
X5.1Y-4.16
X5.1Y-4.21
T3
X5.1Y-4.5
X5.1Y-4.8
X4.815Y-3.715
X4.815Y-4.015
X5.1Y-3.705
X5.1Y-4.005
X4.91Y-3.715
X4.91Y-4.015
X4.5039Y-3.8391
X4.716Y-3.627
X5.Y-4.5
X5.Y-4.8
X4.7Y-4.5
X4.7Y-4.8
X4.9Y-4.5
X4.9Y-4.8
X4.4Y-4.5
X4.4Y-4.8
X4.5029Y-4.3621
X4.715Y-4.15
X5.2Y-3.705
X5.2Y-4.005
X4.5029Y-4.2321
X4.715Y-4.02
X4.5Y-4.5
X4.5Y-4.8
X5.3Y-4.5
X5.3Y-4.8
X4.5039Y-3.9701
X4.716Y-3.758
X4.3Y-4.5
X4.3Y-4.8
X4.5029Y-4.1011
X4.715Y-3.889
X5.005Y-3.715
X5.005Y-4.015
X5.2Y-4.5
X5.2Y-4.8
X4.6Y-4.5
X4.6Y-4.8
T4
X4.272Y-4.101
X4.372Y-4.101
X4.271Y-4.232
X4.371Y-4.232
X4.34Y-3.61
X4.34Y-3.71
X4.9Y-4.93
X5.Y-4.93
X5.1Y-4.93
X5.2Y-4.93
X5.3Y-4.93
X5.1Y-3.6
X5.2Y-3.6
X4.7393Y-4.2993
X4.81Y-4.37
X5.31Y-3.73
X5.31Y-3.83
X4.3Y-4.93
X4.4Y-4.93
X4.5Y-4.93
X4.6Y-4.93
X4.7Y-4.93
X4.272Y-3.84
X4.372Y-3.84
X4.27Y-4.362
X4.37Y-4.362
X4.85Y-3.6
X4.95Y-3.6
X4.48Y-3.61
X4.48Y-3.71
X4.272Y-3.97
X4.372Y-3.97
T0
M30
