G04 #@! TF.GenerationSoftware,KiCad,Pcbnew,(2017-06-21 revision 375ec9f)-master*
G04 #@! TF.CreationDate,2018-12-30T23:55:28-05:00*
G04 #@! TF.ProjectId,pantry_monitor,70616E7472795F6D6F6E69746F722E6B,rev?*
G04 #@! TF.SameCoordinates,Original
G04 #@! TF.FileFunction,Copper,L2,Bot,Signal*
G04 #@! TF.FilePolarity,Positive*
%FSLAX46Y46*%
G04 Gerber Fmt 4.6, Leading zero omitted, Abs format (unit mm)*
G04 Created by KiCad (PCBNEW (2017-06-21 revision 375ec9f)-master) date Sun Dec 30 23:55:28 2018*
%MOMM*%
%LPD*%
G01*
G04 APERTURE LIST*
%ADD10C,0.100000*%
%ADD11C,1.400000*%
%ADD12C,1.400000*%
%ADD13C,1.700000*%
%ADD14C,1.700000*%
%ADD15R,1.700000X1.700000*%
%ADD16O,1.700000X1.700000*%
%ADD17O,1.400000X1.400000*%
%ADD18R,1.500000X0.900000*%
%ADD19O,1.500000X0.900000*%
%ADD20C,0.800000*%
%ADD21C,0.250000*%
G04 APERTURE END LIST*
D10*
D11*
X114374032Y-110798154D03*
D12*
X114374032Y-110798154D02*
X114374032Y-110798154D01*
D11*
X119762186Y-105410000D03*
D13*
X120377949Y-109201949D03*
D14*
X120377949Y-109201949D02*
X120377949Y-109201949D01*
D13*
X122174000Y-110998000D03*
D10*
G36*
X122174000Y-109795918D02*
X123376082Y-110998000D01*
X122174000Y-112200082D01*
X120971918Y-110998000D01*
X122174000Y-109795918D01*
X122174000Y-109795918D01*
G37*
D15*
X124460000Y-125222000D03*
D16*
X127000000Y-125222000D03*
X129540000Y-125222000D03*
X132080000Y-125222000D03*
X134620000Y-125222000D03*
X119380000Y-125222000D03*
X116840000Y-125222000D03*
X114300000Y-125222000D03*
X111760000Y-125222000D03*
D15*
X109220000Y-125222000D03*
D16*
X110236000Y-94234000D03*
D15*
X110236000Y-91694000D03*
X108458000Y-110794800D03*
D16*
X110998000Y-110794800D03*
X113792000Y-94234000D03*
D15*
X113792000Y-91694000D03*
D16*
X111023400Y-107492800D03*
D15*
X108483400Y-107492800D03*
X123190000Y-91440000D03*
D16*
X125730000Y-91440000D03*
D15*
X108508800Y-104165400D03*
D16*
X111048800Y-104165400D03*
D15*
X129540000Y-91440000D03*
D16*
X132080000Y-91440000D03*
X111048800Y-100838000D03*
D15*
X108508800Y-100838000D03*
D16*
X134874000Y-97282000D03*
D15*
X134874000Y-94742000D03*
X108508800Y-97536000D03*
D16*
X111048800Y-97536000D03*
D17*
X124460000Y-114300000D03*
D11*
X124460000Y-121920000D03*
D17*
X122301000Y-101981000D03*
D11*
X122301000Y-94361000D03*
X109220000Y-121920000D03*
D17*
X109220000Y-114300000D03*
D11*
X127000000Y-121920000D03*
D17*
X127000000Y-114300000D03*
X124714000Y-101981000D03*
D11*
X124714000Y-94361000D03*
X119762186Y-102108000D03*
X114374032Y-107496154D03*
D12*
X114374032Y-107496154D02*
X114374032Y-107496154D01*
D17*
X111760000Y-114300000D03*
D11*
X111760000Y-121920000D03*
D17*
X129540000Y-114300000D03*
D11*
X129540000Y-121920000D03*
D17*
X127127000Y-101981000D03*
D11*
X127127000Y-94361000D03*
X119761000Y-98780600D03*
X114372846Y-104168754D03*
D12*
X114372846Y-104168754D02*
X114372846Y-104168754D01*
D11*
X114300000Y-121920000D03*
D17*
X114300000Y-114300000D03*
X132080000Y-114300000D03*
D11*
X132080000Y-121920000D03*
D17*
X129540000Y-101727000D03*
D11*
X129540000Y-94107000D03*
X114398246Y-100841354D03*
D12*
X114398246Y-100841354D02*
X114398246Y-100841354D01*
D11*
X119786400Y-95453200D03*
X116840000Y-121920000D03*
D17*
X116840000Y-114300000D03*
D11*
X134620000Y-121920000D03*
D17*
X134620000Y-114300000D03*
D11*
X132080000Y-94107000D03*
D17*
X132080000Y-101727000D03*
D11*
X114398246Y-97513954D03*
D12*
X114398246Y-97513954D02*
X114398246Y-97513954D01*
D11*
X119786400Y-92125800D03*
X119380000Y-121920000D03*
D17*
X119380000Y-114300000D03*
D18*
X124333000Y-106934000D03*
D19*
X124333000Y-104394000D03*
X124333000Y-105664000D03*
X127000000Y-110490000D03*
X127000000Y-109220000D03*
D18*
X127000000Y-111760000D03*
X129540000Y-106934000D03*
D19*
X129540000Y-104394000D03*
X129540000Y-105664000D03*
X132080000Y-110490000D03*
X132080000Y-109220000D03*
D18*
X132080000Y-111760000D03*
X134493000Y-106934000D03*
D19*
X134493000Y-104394000D03*
X134493000Y-105664000D03*
D20*
X113792000Y-98882200D03*
X117692010Y-111846075D03*
X121285000Y-121793000D03*
X119888000Y-112395000D03*
D21*
X119786400Y-92125800D02*
X114223800Y-92125800D01*
X114223800Y-92125800D02*
X113792000Y-91694000D01*
X110236000Y-91694000D02*
X113792000Y-91694000D01*
X119786400Y-92125800D02*
X122504200Y-92125800D01*
X122504200Y-92125800D02*
X123190000Y-91440000D01*
X114300000Y-114300000D02*
X115289949Y-114300000D01*
X115289949Y-114300000D02*
X116840000Y-114300000D01*
X124333000Y-106934000D02*
X124333000Y-108839000D01*
X124333000Y-108839000D02*
X122174000Y-110998000D01*
X111760000Y-114300000D02*
X112749949Y-114300000D01*
X112749949Y-114300000D02*
X114300000Y-114300000D01*
X109220000Y-114300000D02*
X110209949Y-114300000D01*
X110209949Y-114300000D02*
X111760000Y-114300000D01*
X124460000Y-125222000D02*
X124460000Y-121920000D01*
X127000000Y-125222000D02*
X127000000Y-124019919D01*
X127000000Y-124019919D02*
X127000000Y-121920000D01*
X129540000Y-125222000D02*
X129540000Y-121920000D01*
X132080000Y-125222000D02*
X132080000Y-124019919D01*
X132080000Y-124019919D02*
X132080000Y-121920000D01*
X134620000Y-125222000D02*
X134620000Y-121920000D01*
X118142150Y-120682150D02*
X118680001Y-121220001D01*
X118142150Y-112468939D02*
X118142150Y-120682150D01*
X118417012Y-112194077D02*
X118142150Y-112468939D01*
X118680001Y-121220001D02*
X119380000Y-121920000D01*
X118135400Y-111216461D02*
X118417012Y-111498073D01*
X113792000Y-98882200D02*
X114357685Y-98882200D01*
X118135400Y-102659915D02*
X118135400Y-111216461D01*
X114357685Y-98882200D02*
X118135400Y-102659915D01*
X118417012Y-111498073D02*
X118417012Y-112194077D01*
X119380000Y-125222000D02*
X119380000Y-121920000D01*
X112699800Y-102489000D02*
X114935000Y-102489000D01*
X117286884Y-104840884D02*
X117286884Y-111440949D01*
X111048800Y-100838000D02*
X112699800Y-102489000D01*
X117292011Y-111446076D02*
X117692010Y-111846075D01*
X114935000Y-102489000D02*
X117286884Y-104840884D01*
X117286884Y-111440949D02*
X117292011Y-111446076D01*
X121158000Y-113665000D02*
X121158000Y-121666000D01*
X121158000Y-121666000D02*
X121285000Y-121793000D01*
X119888000Y-112395000D02*
X121158000Y-113665000D01*
X116840000Y-125222000D02*
X116840000Y-121920000D01*
X114300000Y-125222000D02*
X114300000Y-121920000D01*
X111760000Y-125222000D02*
X111760000Y-121920000D01*
X109220000Y-121920000D02*
X109220000Y-125222000D01*
X122301000Y-94361000D02*
X121601001Y-95060999D01*
X121601001Y-95923948D02*
X120369949Y-97155000D01*
X121601001Y-95060999D02*
X121601001Y-95923948D01*
X120369949Y-97155000D02*
X117221000Y-97155000D01*
X117221000Y-97155000D02*
X116332000Y-96266000D01*
X116332000Y-96266000D02*
X112268000Y-96266000D01*
X112268000Y-96266000D02*
X110236000Y-94234000D01*
X121285000Y-92964000D02*
X123317000Y-92964000D01*
X123317000Y-92964000D02*
X124714000Y-94361000D01*
X120396000Y-93853000D02*
X121285000Y-92964000D01*
X115375081Y-93853000D02*
X120396000Y-93853000D01*
X113792000Y-94234000D02*
X114994081Y-94234000D01*
X114994081Y-94234000D02*
X115375081Y-93853000D01*
X125730000Y-91440000D02*
X125730000Y-92964000D01*
X125730000Y-92964000D02*
X127127000Y-94361000D01*
X132080000Y-91440000D02*
X129540000Y-93980000D01*
X129540000Y-93980000D02*
X129540000Y-94107000D01*
X122301000Y-101981000D02*
X124333000Y-104013000D01*
X124333000Y-104013000D02*
X124333000Y-104394000D01*
X124714000Y-101981000D02*
X127000000Y-104267000D01*
X127000000Y-104267000D02*
X127000000Y-109220000D01*
X127127000Y-101981000D02*
X127826999Y-102680999D01*
X127826999Y-102680999D02*
X129540000Y-104394000D01*
X129540000Y-101727000D02*
X132080000Y-104267000D01*
X132080000Y-104267000D02*
X132080000Y-109220000D01*
X132080000Y-101727000D02*
X134493000Y-104140000D01*
X134493000Y-104140000D02*
X134493000Y-104394000D01*
X129540000Y-109474000D02*
X129540000Y-114300000D01*
X128016000Y-107950000D02*
X129540000Y-109474000D01*
X128016000Y-106188000D02*
X128016000Y-107950000D01*
X129540000Y-105664000D02*
X128540000Y-105664000D01*
X128540000Y-105664000D02*
X128016000Y-106188000D01*
X129413000Y-114173000D02*
X129540000Y-114300000D01*
X132842000Y-107696000D02*
X134620000Y-109474000D01*
X134620000Y-109474000D02*
X134620000Y-114300000D01*
X132842000Y-106315000D02*
X132842000Y-107696000D01*
X134493000Y-105664000D02*
X133493000Y-105664000D01*
X133493000Y-105664000D02*
X132842000Y-106315000D01*
X134493000Y-114173000D02*
X134620000Y-114300000D01*
M02*
